<svg width="140" height="100" viewBox="0 0 140 100" fill="none" xmlns="http://www.w3.org/2000/svg">
<path d="M16 3H124C131.18 3 137 8.8203 137 16V84C137 91.1797 131.18 97 124 97H16C8.8203 97 3 91.1797 3 84V16C3 8.8203 8.8203 3 16 3Z" fill="white" stroke="#A8DADC" stroke-width="6"/>
<path d="M31.664 62.208H30.512C29.488 64.384 28.432 66.496 27.344 68.544C26.32 70.592 25.36 72.544 24.464 74.4C23.952 75.424 23.312 76.832 22.544 78.624C21.776 80.416 21.2 81.856 20.816 82.944C20.624 83.456 20.144 83.84 19.376 84.096C18.608 84.416 17.808 84.576 16.976 84.576C16.208 84.576 15.536 84.448 14.96 84.192C14.384 83.936 14.096 83.552 14.096 83.04C14.096 82.592 14.224 82.208 14.48 81.888C14.736 81.504 14.992 81.056 15.248 80.544C15.568 80.032 16.048 79.2 16.688 78.048C17.328 76.832 18.256 75.04 19.472 72.672C20.688 70.304 22.384 67.008 24.56 62.784C24.368 62.784 24.176 62.816 23.984 62.88C23.856 62.88 23.728 62.88 23.6 62.88H23.504C22.8 62.88 22.128 62.4 21.488 61.44C20.848 60.416 20.528 59.488 20.528 58.656C20.528 57.952 20.848 57.6 21.488 57.6H21.68C22.256 57.664 22.832 57.728 23.408 57.792C23.984 57.792 24.592 57.792 25.232 57.792H26.96C29.2 53.376 31.408 48.896 33.584 44.352C35.824 39.744 37.872 35.424 39.728 31.392C41.584 27.36 43.056 24.032 44.144 21.408C44.4 20.768 44.624 19.872 44.816 18.72C45.008 17.504 45.328 16.704 45.776 16.32C46.224 16 46.704 15.84 47.216 15.84C48.112 15.84 49.04 16.128 50 16.704C50.96 17.216 51.568 17.792 51.824 18.432C51.952 18.624 52.016 18.848 52.016 19.104C52.016 19.296 52.016 19.488 52.016 19.68V20.352C52.016 20.544 52.08 20.896 52.208 21.408C54.064 26.336 56.208 31.744 58.64 37.632C61.136 43.456 63.728 49.344 66.416 55.296C69.104 61.248 71.696 66.848 74.192 72.096C74.704 73.12 75.504 74.592 76.592 76.512C77.68 78.432 78.736 80.128 79.76 81.6C79.888 81.792 79.984 81.984 80.048 82.176C80.112 82.304 80.144 82.432 80.144 82.56C80.144 83.2 79.664 83.712 78.704 84.096C77.808 84.48 76.88 84.672 75.92 84.672C75.28 84.672 74.704 84.576 74.192 84.384C73.68 84.256 73.36 84 73.232 83.616C72.848 82.464 72.272 80.96 71.504 79.104C70.8 77.184 70.192 75.648 69.68 74.496C68.72 72.448 67.728 70.272 66.704 67.968C65.68 65.664 64.624 63.328 63.536 60.96L31.664 62.208ZM48.176 24.48C47.216 26.848 45.904 29.824 44.24 33.408C42.576 36.992 40.752 40.896 38.768 45.12C36.784 49.28 34.768 53.472 32.72 57.696C32.72 57.696 33.392 57.664 34.736 57.6C36.144 57.536 37.936 57.472 40.112 57.408C42.352 57.28 44.688 57.184 47.12 57.12C49.552 56.992 51.856 56.896 54.032 56.832C56.272 56.704 58.064 56.608 59.408 56.544C60.816 56.48 61.52 56.448 61.52 56.448C59.728 52.288 57.968 48.192 56.24 44.16C54.512 40.064 52.944 36.32 51.536 32.928C50.128 29.536 49.008 26.72 48.176 24.48ZM119.577 84C119.065 83.936 117.945 83.872 116.217 83.808C114.553 83.744 112.889 83.712 111.225 83.712H109.689L83.0013 84.096C81.9773 84.096 81.0813 84.192 80.3133 84.384C79.6093 84.64 78.7773 84.768 77.8173 84.768C76.9853 84.768 76.1213 84.224 75.2253 83.136C74.3933 82.048 73.9773 81.152 73.9773 80.448C73.9773 80 74.0733 79.328 74.2653 78.432C74.5213 77.536 74.6493 76.704 74.6493 75.936V50.688C73.9453 50.304 73.3053 49.696 72.7293 48.864C72.2173 47.968 71.9613 47.2 71.9613 46.56C71.9613 46.048 72.1853 45.792 72.6333 45.792H72.8253C73.1453 45.856 73.4333 45.92 73.6893 45.984C74.0093 45.984 74.3293 45.984 74.6493 45.984V26.016C74.6493 24.992 74.6493 24.032 74.6493 23.136C74.6493 22.176 74.5853 21.312 74.4573 20.544C74.3933 20.032 74.3293 19.616 74.2653 19.296C74.2653 18.912 74.2653 18.592 74.2653 18.336C74.2653 17.44 74.6493 16.992 75.4173 16.992C75.9933 16.992 76.6653 17.12 77.4333 17.376C78.2653 17.568 78.9693 17.792 79.5453 18.048C80.1213 18.24 80.4093 18.336 80.4093 18.336L106.521 16.608C107.993 16.48 109.529 16.32 111.129 16.128C112.793 15.936 113.913 15.84 114.489 15.84C115.321 15.84 116.025 16.352 116.601 17.376C117.241 18.336 117.561 19.2 117.561 19.968C117.561 20.864 117.209 21.312 116.505 21.312H112.473C111.513 21.312 110.521 21.312 109.497 21.312C108.473 21.312 107.513 21.344 106.617 21.408L80.2173 23.136V45.888L101.241 44.64C102.713 44.512 104.249 44.352 105.849 44.16C107.513 43.968 108.633 43.872 109.209 43.872C110.041 43.872 110.745 44.384 111.321 45.408C111.961 46.368 112.281 47.232 112.281 48C112.281 48.896 111.929 49.344 111.225 49.344H107.193C106.233 49.344 105.241 49.344 104.217 49.344C103.193 49.344 102.233 49.376 101.337 49.44L80.2173 50.592V79.104L109.593 78.624C111.001 78.624 112.441 78.592 113.913 78.528C115.385 78.464 116.601 78.4 117.561 78.336H117.657C118.489 78.336 119.193 78.848 119.769 79.872C120.345 80.896 120.633 81.824 120.633 82.656C120.633 83.552 120.313 84 119.673 84H119.577Z" fill="#1D3557"/>
</svg>
